Patient4_TMGait_0pt4_01_right_10_EMG.mot
version=1
nRows=29
nColumns=33
inDegrees=no
endheader
time	1LAddLong	2LGlutMax	3LGlutMed	4LIliopsoas	5LSemiMemb	6LBicFemLong	7LRecFem	8LVastMed	9LVastLat	10LGasMed	11LTibAnt	12lTibPost	13LPeroneusLong	14LSol	15LExtDigLong	16LFlexDigLong	17RAddLong	18RGlutMax	19RGlutMed	20RIliopsoas	21RSemiMemb	22RBicFemLong	23RRecFem	24RVastMed	25RVastLat	26RGasMed	27RTibAnt	28RTibPost	29RPeroneusLong	30RSol	31RExtDigLong	32RFlexDigLong
12.7	0.005798	0.10513	-0.082245	0.011444	0.017242	-0.043793	0.045471	-0.013275	0.010376	-0.10742	-0.008545	0.004425	-0.039673	-0.13779	0.008545	-0.002594	-0.050964	-0.023041	-0.34439	-0.023041	0.10223	0.017395	0.088043	-0.06134	-0.009308	0.000305	0.11231	-0.003662	0.12009	-0.034943	-0.004272	-0.006409
12.701	0.004883	0.10681	0	0.010376	-0.000305	-0.029602	0.062103	-0.009308	-0.016327	-0.066681	0.053711	-0.000916	-0.024719	-0.2066	-0.015564	-0.021667	-0.050964	-0.014496	-0.27161	-0.035248	0.11185	0.04837	0.086975	-0.029602	-0.015259	0.005341	0.36911	-0.003357	0.31052	-0.046387	-0.003357	-0.01297
12.702	0.004272	0.072784	-0.11917	0.033875	-0.032043	-0.053101	0.035248	0.000153	0.081024	0.11948	0.052795	-0.005341	0.10956	-0.10284	-0.00946	0.021667	-0.059204	-0.041199	-0.2211	-0.062408	0.1181	0.067902	0.059052	-0.028992	-0.0177	0.000153	0.2475	-0.001678	0.17456	-0.10941	-0.002441	-0.024567
12.703	0.007324	0.053101	-0.097809	0.014038	-0.028992	-0.046692	0.000458	-0.007782	0.1651	0.28442	0.042267	0.013733	0.010223	-0.041962	-0.009003	0.018158	-0.030823	-0.083466	-0.22568	-0.067444	0.10925	-0.014038	0.10284	-0.087585	-0.041962	-0.002441	0.3006	-0.002441	0.029755	-0.096283	-0.00473	-0.031281
12.704	0.009308	0.083313	0.011902	0.014038	-0.00351	-0.016022	-0.012054	-0.002289	0.18082	0.18097	-0.000153	0.01236	-0.05249	0.10773	-0.015564	0.011597	-0.024414	-0.036926	-0.2948	-0.044708	0.073853	-0.029907	0.080872	-0.073395	-0.034027	-0.002441	-0.03067	-0.00351	-0.091553	-0.037231	-0.000153	-0.035706
12.705	0.016937	0.044556	-0.021362	0.009308	0.073242	0.034943	0.021973	-0.003662	0.16235	0.07782	-0.008087	0.017242	0.031281	0.061188	-0.01236	0.009766	-0.029602	-0.010376	-0.24094	-0.021973	0.083008	-0.014343	0.048828	-0.050812	-0.026703	0.004272	-1.0641	0.000916	-0.12528	-0.084229	-0.00473	-0.035095
12.706	0.012207	0.019684	-0.13046	-0.007172	0.077057	0.044556	0.028076	0.005035	0.16296	0.045624	-0.038147	0.024719	0.074463	-0.10437	-0.018005	0.004272	-0.032806	-0.06073	-0.22797	-0.051117	-0.045471	-0.006714	0.037689	-0.052948	-0.028839	0.001831	-0.46555	-0.002289	-0.29495	-0.034943	-0.00473	-0.030823
12.707	0.011597	0.057831	-0.073547	0.007935	0.059509	0.007935	0.021515	0.003357	0.11902	0.016174	-0.079041	0.02655	0.092773	-0.21332	-0.015717	-0.014954	-0.022278	-0.08194	-0.18295	-0.11063	0.12024	0.000916	-0.025177	-0.072784	-0.037842	-0.014038	0.15472	-0.003204	-0.47363	-0.059357	-0.006714	-0.039063
12.708	0.00473	0.04776	-0.055695	0.015411	0.029907	0.006561	0.10086	0.010071	-0.15564	-0.040283	-0.061493	0.001221	0.15808	-0.11856	-0.001831	-0.009918	-0.015564	-0.044098	-0.12711	-0.1535	0.10162	-0.042267	-0.019836	-0.070038	-0.029602	0.00351	0.37949	-0.002289	-0.060577	-0.085602	-0.006104	-0.039978
12.709	0.002289	0.078278	-0.055389	0.00885	-0.011597	0.008392	0.099487	0.003967	-0.30304	-0.068054	0.081177	-0.001221	0.085602	0.030823	0.12177	-0.002899	-0.008545	-0.023651	-0.21362	0.073395	0.057983	-0.068665	0.014801	-0.099792	-0.050507	-0.006256	0.25925	0.000305	-0.029755	-0.085449	-0.009918	-0.042419
12.71	0.002899	0.076141	-0.065002	0.014954	-0.025635	0.002136	0.095673	0.009003	-0.19638	-0.070648	0.080261	0.005035	-0.042267	-0.038452	0.030518	-0.002136	-0.000153	-0.041046	-0.3183	0.37384	0.067291	-0.05188	0.008698	-0.087738	-0.039368	-0.008545	0.089417	-0.00824	0.089417	-0.019531	-0.004883	-0.030212
12.711	0.001984	0.074158	0.003357	0.026855	0.006561	-0.016022	0.035553	0.006409	-0.1181	-0.093536	0.081024	0.006714	0.24414	0.075989	0.016937	-0.011139	0.018311	-0.04715	-0.23697	0.37933	0.13489	-0.054016	0.030212	-0.065765	-0.031586	-0.00351	-0.075073	-0.000763	0.080566	0.046387	-0.006561	-0.019684
12.712	0.015564	0.041656	0.039825	0.019073	0.039673	-0.052795	-0.010529	0	-0.083466	-0.059204	0.046997	0.009308	0.22629	0.22903	0.08728	0.005798	-0.002136	-0.001221	-0.17364	0.19394	0.28748	-0.038757	0.040741	-0.041962	-0.016937	0.005646	-0.24796	-0.002899	0.097046	0.1239	-0.007782	-0.025635
12.713	0.015564	0.010071	0.06012	0.018463	0.058136	-0.027008	-0.034485	0.001068	-0.028839	-0.015259	0.062561	-0.007477	0.06073	0.29404	0.1239	0.016327	-0.001678	-0.045929	-0.22049	0.073242	0.19119	-0.011749	0.10529	-0.027618	-0.015717	0.012207	-0.078888	-0.004425	0.089111	0.049286	-0.004578	-0.033264
12.714	0.002899	0.015717	0.02655	0.021515	0.04837	-0.005188	-0.020752	-0.006104	0.016022	-0.003357	0.088501	-0.000153	-0.41245	0.28397	0.26947	0.02121	-0.007782	-0.029144	-0.16037	-0.016022	0.14236	0.033264	0.1004	-0.013885	-0.006561	0.008087	0.25604	-0.003204	0.054016	0.005188	-0.003967	-0.021515
12.715	0.01297	0.001678	-0.007782	0.01236	0.014191	0.014648	0.00351	0.000153	0.028992	0.000916	0.12146	0.014801	-0.48538	0.20889	0.042419	0.005646	-0.014191	-0.049591	-0.25879	-0.02655	0.10437	0.021057	0.12695	-0.024872	-0.007782	0.007629	0.2356	-0.003357	0.050659	0.049591	-0.006561	-0.016327
12.716	0.011749	0.018311	-0.076904	-0.010986	-0.002441	0.01297	0.053253	0.010986	0.047913	-0.019379	0.058899	0.00061	0.3122	0.2356	-0.00824	0.016327	-0.012512	-0.045929	-0.22018	-0.043335	0.062256	0.022736	0.1297	-0.025635	-0.003662	0.011749	-0.22247	-0.001373	0.06424	0.001373	-0.004272	-0.0177
12.717	0.011597	0.018311	-0.13794	0.003052	-0.005188	0.030212	0.020905	0.002747	0.046844	-0.050354	0.028687	0.014496	0.30746	0.18768	-0.12619	0.015259	-0.007172	-0.042114	-0.080109	-0.012665	-0.037537	0.003204	0.1265	-0.044708	-0.003357	0.017395	-0.11826	-0.002899	-0.014191	-0.007172	-0.010071	-0.02533
12.718	0.013123	0.024109	-0.096893	0.003967	-0.019989	0.005493	-0.005798	0.001526	0.023041	0.008392	0.053711	0.010223	-0.30701	0.16556	-0.19913	0.011292	-0.001831	-0.037689	-0.042419	-0.012512	-0.009766	-0.019379	0.13107	-0.065765	-0.039673	0.006866	-0.06012	-0.002747	0.025177	-0.0383	-0.004272	-0.022125
12.719	0.002747	0.024872	-0.035706	0.004883	-0.055084	0.023651	0.047455	0.002594	0.018158	0.00824	0.001984	0.002289	0.012207	0.17456	-0.23682	0.024719	0.058746	-0.031586	0.016632	-0.08728	0.018158	-0.015717	0.094452	-0.079803	-0.021667	0.004578	0.024261	-0.001526	-0.073242	-0.05722	-0.004883	-0.017548
12.72	0.004883	0.025787	-0.027466	0.019684	-0.068359	0.024719	0.043335	0.008698	0.014648	0.02655	0.045929	0.002289	0.074005	0.12802	-0.25681	0.009308	0.08255	-0.031128	0.10513	-0.081482	0.070953	-0.053558	0.089417	-0.096588	-0.02594	0.004272	0.12756	-0.002747	-0.1265	-0.062103	-0.007935	-0.017242
12.721	-0.003967	-0.002289	0.003052	0.013275	-0.10071	0.052795	0.033112	-0.003052	0.03067	0.03952	0.015411	0.004425	-0.066376	0.060272	-0.052795	0.004425	0.079803	-0.070343	0.10208	-0.10819	0.085754	-0.04776	0.10803	-0.064087	-0.035095	-0.001831	-0.05127	-0.002289	-0.10208	-0.072479	-0.005493	-0.019836
12.722	-0.002441	0.015259	0.042572	0.004578	-0.018921	-0.018158	0.030823	0.006104	0.033264	0.011597	-0.002594	-0.00061	-0.17761	-0.036316	0.021667	0.002136	0.13153	-0.064545	0.018463	-0.096893	0.06897	-0.055084	0.03952	-0.095825	-0.028687	-0.006409	-0.20416	-0.003204	0.043488	-0.094452	-0.002441	-0.015717
12.723	0.000763	0.050659	0.052795	0.007324	0.034027	-0.064087	0.024109	0.005951	0.028381	0.032806	0.005188	0.003815	-0.16907	0.000763	-0.058289	0.005035	0.14923	-0.072632	-0.0354	-0.048828	0.03067	-0.02121	0.050354	-0.10193	-0.02121	-0.00351	-0.041656	-0.000916	0.18845	-0.10651	-0.001221	-0.00885
12.724	0.010071	0.083008	0.04303	-0.007019	0.09079	-0.010834	0.0177	-0.000153	0.019226	0.000458	0.032501	0.007172	-0.34103	0.14694	-0.093689	0.004272	0.18753	-0.078125	-0.17456	-0.000153	0.020142	0.014191	0.045013	-0.07431	-0.018768	-0.008698	0.19196	-0.003662	0.004578	-0.071716	-0.003052	-0.003357
12.725	0.002289	0.097809	-0.000916	0.001831	0.075073	-0.018158	0.027618	0.00473	0.018158	-0.095367	-0.1001	0.005493	0.052643	0.2034	-0.050354	0.001221	0.15625	-0.060577	-0.19882	0.007477	0.009308	-0.047913	0.053101	-0.074005	-0.010681	-0.011292	0.10193	-0.001678	-0.3508	0.007935	-0.001373	-0.004578
12.726	0.010529	0.11185	0.035553	-0.004578	0.017853	-0.041962	0.030365	-0.002441	-0.00061	-0.10864	-0.070038	0.007935	0.54489	0.13534	0.17609	0.012054	0.11765	-0.052643	-0.16129	-0.009613	0.066223	-0.10162	0.055542	-0.062866	-0.018005	-0.012054	0.064545	0.002441	-0.41657	0.014038	-0.002289	0.001831
12.727	0.016937	0.10635	0.098724	-0.004883	0.056152	-0.038452	0.033264	0.002289	-0.011597	-0.059509	-0.019836	0.004272	0.086975	0.23224	0.18097	0.044708	0.024261	-0.02182	-0.13138	-0.028229	0.14358	-0.12817	0.04715	-0.081787	-0.031586	-0.006409	0.053253	-0.007477	-0.048676	0.012054	-0.001831	0.002136
12.728	0.011749	0.12634	0.15091	0.024414	0.049438	-0.018311	0.021515	-0.00473	-0.014038	-0.045013	-0.009766	0.01297	-0.31616	0.224	0.070038	0.027924	-0.084381	-0.052185	-0.046234	0.009918	0.19547	-0.1181	0.055847	-0.042572	-0.014648	-0.009155	-0.30243	-0.001984	0.63995	-0.059967	-0.005035	0.002594
